# xmcd
#
# Track frame offsets:
#	150
#	17290
#	27377
#	43263
#	56557
#	70206
#	92915
#	105804
#	117782
#	135107
#	149404
#	163636
#	176221
#	185374
#	205145
#	222872
#	244374
#	261412
#	275331
#	290608
#	302069
#	318112
#
# Disc length: 4506 seconds
#
# Revision: 2
# Processed by: cddbd v1.5.2PL0 Copyright (c) Steve Scherf et al.
# Submitted via: EasyCDDAExtractor 11.5.3.1
#
DISCID=3f119816
DTITLE=Various Artist - Heartaches And Highways - Volume 3
DYEAR=2003
DGENRE=Country-Various
TTITLE0=Tom Russell - The Road It Gives, The Road It Takes Away
TTITLE1=Fred Eaglesmith - Indian Motorcycles
TTITLE2=The Revelators (Featuring Joe Camilleri) - Heart Like A Wheel
TTITLE3=Heather Myles and Dwight Yoakam - Little Chapel
TTITLE4=Delbert McClinton - Blues About You Baby
TTITLE5=The Flatlanders - Goin' Away
TTITLE6=Bill Chambers - Sometimes
TTITLE7=Nanci Griffith - I Wish It Would Rain
TTITLE8=Buddy and Julie Miller - Keep Your Distance
TTITLE9=Audrey Auld - Losing Faith
TTITLE10=Alison Krauss and Union Station - The Lucky One
TTITLE11=Kieran Kane - June Carter (Sure Can Sing)
TTITLE12=Jerry Douglas - In The Sweet By and By
TTITLE13=Guy Clark - Homeless
TTITLE14=Kevin Welch and The Danes - Millionaire
TTITLE15=Buddy Miller - The Price Of Love
TTITLE16=Caitlin Cary - Too Many Keys
TTITLE17=Nick Lowe - Lately I've Let Things Slide
TTITLE18=Danni Leigh - House Of Pain
TTITLE19=Jason Ringenberg and BR549 - Don't Come Home A Drinkin' ( With Lovin' O
TTITLE19=n Your Mind)
TTITLE20=John Prine With Iris Dement - In Spite Of Ourselves
TTITLE21=Kathleen Edwards - One More Song The Radio Won't Play
EXTD=
EXTT0=
EXTT1=
EXTT2=
EXTT3=
EXTT4=
EXTT5=
EXTT6=
EXTT7=
EXTT8=
EXTT9=
EXTT10=
EXTT11=
EXTT12=
EXTT13=
EXTT14=
EXTT15=
EXTT16=
EXTT17=
EXTT18=
EXTT19=
EXTT20=
EXTT21=
PLAYORDER=
